<svg xmlns="http://www.w3.org/2000/svg" width="22.573" height="24.212" viewBox="0 0 22.573 24.212">
  <path id="add-shopping-cart" d="M12.7,10.724h2.239V7.265H18.3V4.959H14.937V1.5H12.7V4.959H9.338V7.265H12.7ZM8.218,21.1a2.307,2.307,0,0,0,0,4.612,2.307,2.307,0,0,0,0-4.612Zm11.2,0a2.307,2.307,0,1,0,2.239,2.306A2.271,2.271,0,0,0,19.415,21.1ZM8.409,17.353l.034-.138L9.45,15.336h8.342a2.22,2.22,0,0,0,1.96-1.188l4.322-8.082L22.125,4.959h-.011L20.882,7.265l-3.09,5.765H9.931l-.146-.311L7.278,7.265,6.214,4.959,5.161,2.653H1.5V4.959H3.739L7.77,13.71,6.259,16.535a2.311,2.311,0,0,0,1.96,3.413H21.655V17.642H8.689A.289.289,0,0,1,8.409,17.353Z" transform="translate(-1.5 -1.5)" fill="#fff"/>
</svg>
