<svg xmlns="http://www.w3.org/2000/svg" width="47.453" height="45.398" viewBox="0 0 47.453 45.398">
  <g id="cart2" transform="translate(0.25 -4.25)">
    <path id="Path_1" data-name="Path 1" d="M0,6.1A1.585,1.585,0,0,1,1.565,4.5H6.26A1.573,1.573,0,0,1,7.777,5.716l1.269,5.2H45.382a1.552,1.552,0,0,1,1.232.617,1.634,1.634,0,0,1,.285,1.375L42.205,32.147a1.573,1.573,0,0,1-1.518,1.216H12.519A1.573,1.573,0,0,1,11,32.147L5.04,7.707H1.565A1.585,1.585,0,0,1,0,6.1Zm9.828,8.018,3.913,16.035H39.468l3.913-16.035Zm5.821,25.656a3.208,3.208,0,1,0,3.13,3.207A3.169,3.169,0,0,0,15.649,39.777Zm-6.26,3.207a6.261,6.261,0,1,1,6.26,6.414A6.338,6.338,0,0,1,9.389,42.984Zm28.168-3.207a3.208,3.208,0,1,0,3.13,3.207A3.169,3.169,0,0,0,37.558,39.777ZM31.3,42.984a6.261,6.261,0,1,1,6.26,6.414A6.338,6.338,0,0,1,31.3,42.984Z" fill="#52d18a" stroke="#52d18a" stroke-width="0.5" fill-rule="evenodd"/>
  </g>
</svg>
